<!DOCTYPE svg PUBLIC "-//W3C//DTD SVG 1.1//EN" "http://www.w3.org/Graphics/SVG/1.1/DTD/svg11.dtd">
<!-- Uploaded to: SVG Repo, www.svgrepo.com, Transformed by: SVG Repo Mixer Tools -->
<svg version="1.1" id="designs" xmlns="http://www.w3.org/2000/svg" xmlns:xlink="http://www.w3.org/1999/xlink" width="64px" height="64px" viewBox="0 0 32 32" xml:space="preserve" fill="#000000">
<g id="SVGRepo_bgCarrier" stroke-width="0"/>
<g id="SVGRepo_tracerCarrier" stroke-linecap="round" stroke-linejoin="round"/>
<g id="SVGRepo_iconCarrier"> <style type="text/css"> .sketchy_een{fill:#3B75B8;} </style> <path class="sketchy_een" d="M30.943,24.934c-0.012-0.43-0.048-0.86-0.034-1.289c0.014-0.514,0.056-1.025,0.09-1.537 c0.028-0.442-0.392-0.814-0.815-0.814c-0.037,0-0.068,0.016-0.103,0.021c-0.12-0.078-0.253-0.135-0.402-0.127 c-0.714,0.034-1.435,0.008-2.149-0.006c-0.383-0.009-0.764-0.011-1.146-0.017c0.002-0.272,0.012-0.543,0.024-0.815 c0.018-0.068,0.041-0.133,0.038-0.206c-0.018-0.376-0.086-0.749-0.098-1.127c-0.006-0.218,0.018-0.442,0.04-0.66 c0.026-0.254,0.046-0.51,0.072-0.767c0.022-0.212-0.104-0.454-0.248-0.6c-0.006-0.006-0.016-0.009-0.022-0.015 c-0.146-0.169-0.35-0.286-0.579-0.286c-0.015,0-0.03,0-0.045,0.002c-0.326,0.02-0.65,0.072-0.977,0.1 c-0.514,0.042-1.033,0.032-1.549,0.036c-0.957,0.008-1.912-0.016-2.868-0.034c-0.004-0.005-0.005-0.01-0.01-0.015 c-0.238-0.258-0.458-0.534-0.692-0.801c-0.122-0.138-0.244-0.276-0.38-0.4c-0.116-0.108-0.242-0.204-0.362-0.306 c-0.651-0.549-1.243-1.166-1.87-1.741c-0.047-0.55-0.053-1.104-0.068-1.656c0.282,0.002,0.564-0.001,0.846,0 c0.817,0.002,1.631-0.006,2.45-0.026c0.46-0.012,0.921,0.006,1.383,0.014c0.232,0.006,0.466,0.002,0.698,0.002 c0.174,0,0.344-0.028,0.518-0.034c0.47-0.016,0.863-0.38,0.863-0.863c0-0.108-0.023-0.216-0.064-0.317 c-0.039-0.493-0.034-0.987-0.047-1.482c-0.014-0.49-0.076-0.977-0.094-1.467c-0.018-0.521-0.036-1.041-0.056-1.561 c-0.026-0.596-0.026-1.193-0.056-1.789c-0.024-0.472-0.376-0.869-0.869-0.869c-0.045,0-0.087,0.02-0.131,0.027 c-0.133-0.096-0.285-0.164-0.455-0.15c-0.39,0.032-0.783,0.022-1.175,0.02c-0.402-0.002-0.805,0.004-1.205,0.01 c-0.76,0.016-1.521,0.01-2.279-0.01c-0.757-0.02-1.511-0.078-2.268-0.092c-0.168-0.003-0.335-0.004-0.503-0.004 c-0.62,0-1.237,0.017-1.857,0.028c-0.322,0.006-0.646,0.006-0.969,0.006c-0.414,0-0.829,0-1.243,0.01 c-0.25,0.008-0.47,0.125-0.624,0.302C9.485,3.784,9.375,4,9.368,4.243C9.352,4.849,9.336,5.456,9.32,6.062 C9.304,6.606,9.312,7.149,9.312,7.691c0,0.544-0.014,1.087-0.02,1.631c-0.005,0.445,0.013,0.896-0.025,1.34 c-0.076,0.388,0.088,0.77,0.424,0.96c0.012,0.014,0.017,0.033,0.031,0.046c0.15,0.15,0.328,0.206,0.534,0.222 c0.516,0.04,1.035,0.032,1.551,0.026c0.284-0.004,0.566-0.008,0.849-0.006c0.809,0.01,1.616-0.019,2.423-0.035 c0.035,0.594,0.082,1.188,0.12,1.782c-0.003,0.003-0.007,0.004-0.009,0.007c-0.248,0.29-0.49,0.586-0.748,0.869 c-0.254,0.278-0.53,0.536-0.789,0.813c-0.476,0.51-0.916,1.055-1.411,1.547c-0.03,0-0.059-0.003-0.089-0.003 c-0.232,0-0.464,0.01-0.699,0.019c-0.454,0.018-0.909,0.026-1.363,0.028c-0.304,0.002-0.608-0.002-0.911-0.008 c-0.604-0.012-1.211-0.022-1.815,0.026c-0.132,0.01-0.25,0.043-0.361,0.094c-0.001,0-0.001,0-0.001,0 c-0.465,0-0.861,0.388-0.857,0.854c0.004,0.482,0.024,0.961,0.058,1.439c0.032,0.446,0.08,0.889,0.082,1.337 c0.001,0.149,0.053,0.282,0.124,0.404c-0.224,0-0.449,0.001-0.673,0.001c-1.001-0.002-2.001-0.004-3,0.022 c-0.266,0.008-0.53,0.024-0.797,0.048c-0.148,0.013-0.277,0.057-0.398,0.124C1.228,21.401,0.997,21.708,1,22.062 c0.006,0.947,0.03,1.891,0.076,2.836c0.022,0.44,0.028,0.879,0.046,1.317c0.02,0.446,0.036,0.889,0.016,1.335 c-0.012,0.29,0.161,0.539,0.397,0.689c0.137,0.28,0.415,0.5,0.736,0.475c0.897-0.072,1.793-0.152,2.694-0.17 c0.809-0.018,1.617-0.008,2.428-0.014c0.354-0.002,0.708,0.002,1.065,0.004c0.382,0.004,0.764,0.006,1.147,0.002 c0.196,0,0.394,0,0.59,0c0.198,0.002,0.396,0.002,0.594,0c0.39-0.002,0.785,0.002,1.175,0.03c0.217,0.015,0.415-0.082,0.561-0.233 c0.172-0.028,0.335-0.094,0.459-0.218c0.104-0.104,0.176-0.228,0.214-0.368c0.037-0.139,0.04-0.277,0.007-0.416 c-0.027-0.317-0.016-0.64-0.019-0.957c-0.002-0.428-0.01-0.859-0.01-1.287c0-1.019-0.008-2.035-0.036-3.052 c-0.012-0.466-0.38-0.857-0.855-0.857c-0.019,0-0.036,0.01-0.055,0.012c-0.117-0.059-0.242-0.099-0.384-0.111 c-0.074-0.006-0.147-0.008-0.221-0.008c-0.092,0-0.185,0.003-0.277,0.004c-0.176,0-0.352-0.006-0.528-0.002 c-0.368,0.008-0.74,0.012-1.111,0.01c-0.63-0.002-1.259-0.003-1.889-0.002c0.073-0.122,0.125-0.255,0.116-0.403 c-0.041-0.698-0.051-1.394-0.059-2.091c0.302-0.024,0.605-0.052,0.908-0.064c0.418-0.018,0.835-0.012,1.253-0.024 c0.464-0.012,0.929-0.042,1.393-0.064c0.193-0.008,0.385,0.009,0.576,0.013c0.296,0.305,0.596,0.606,0.896,0.908 c0.286,0.29,0.582,0.572,0.865,0.867c0.264,0.276,0.512,0.564,0.782,0.834c0.29,0.292,0.578,0.588,0.875,0.877 c0.102,0.099,0.23,0.151,0.361,0.18c0.154,0.141,0.356,0.226,0.565,0.226c0.2,0,0.464-0.08,0.592-0.244 c0.34-0.434,0.686-0.857,1.051-1.271c0.29-0.328,0.614-0.618,0.915-0.937c0.262-0.278,0.486-0.584,0.74-0.866 c0.174-0.193,0.363-0.372,0.532-0.569c0.445-0.008,0.889-0.038,1.335-0.047c0.498-0.01,0.999,0,1.499,0.002 c0.512,0.004,1.027-0.002,1.539-0.012c0.061-0.001,0.123-0.001,0.185-0.001c0.001,0.198,0.004,0.397,0.009,0.596 c0.01,0.384,0.02,0.769,0.052,1.153c0.001,0.008,0.004,0.014,0.005,0.022c-0.006,0.324-0.008,0.649-0.004,0.975 c-0.417-0.009-0.835-0.023-1.253-0.023c-0.209,0-0.417,0.004-0.626,0.014c-0.75,0.036-1.505,0.044-2.257,0.09 c-0.086,0.006-0.172,0.01-0.26,0.018c-0.22,0.016-0.41,0.076-0.57,0.236c-0.005,0.005-0.006,0.011-0.011,0.016 c-0.189,0.153-0.318,0.377-0.321,0.635c-0.008,0.869,0.006,1.735,0,2.604c-0.004,0.424,0.008,0.849,0.008,1.273 c0,0.41-0.002,0.821,0.008,1.231c0.005,0.228,0.099,0.438,0.25,0.59c0.075,0.375,0.402,0.715,0.805,0.687 c0.859-0.058,1.717-0.116,2.578-0.128c0.781-0.012,1.559-0.054,2.34-0.076c0.784-0.024,1.569-0.02,2.354,0.012 c0.368,0.014,0.736,0.038,1.105,0.044c0.318,0.005,0.642-0.005,0.962,0.02c0.215,0.04,0.417,0.027,0.611-0.086 c0.182-0.108,0.32-0.286,0.376-0.49c0.034-0.125,0.028-0.255,0.002-0.381c0.049-0.107,0.081-0.221,0.092-0.347 c0.02-0.288,0-0.584-0.006-0.873C30.973,25.783,30.957,25.359,30.943,24.934z M13.198,27.307c0-0.002-0.001-0.003-0.001-0.005 c-0.001-0.009-0.002-0.016-0.003-0.025C13.196,27.287,13.197,27.297,13.198,27.307z M11.198,22.74 c0.085-0.001,0.172,0.001,0.258,0.002c0.033,0.781,0.072,1.562,0.092,2.345c0.012,0.428-0.004,0.858,0,1.287 c0.001,0.198,0.01,0.397,0.015,0.597c-0.08,0.001-0.16-0.002-0.241,0.001c-0.16,0.004-0.32,0.008-0.478,0.004 c-0.394-0.006-0.789-0.004-1.183-0.008c-0.378-0.004-0.756,0-1.135,0.002c-0.378,0.004-0.757,0.006-1.135,0.002 c-0.578-0.005-1.156-0.01-1.734-0.01c-0.956,0-1.911,0.021-2.865,0.072c-0.024-0.712-0.065-1.423-0.098-2.135 c-0.034-0.727-0.021-1.455-0.009-2.183c0.563-0.036,1.125-0.057,1.692-0.056c0.77,0.004,1.541,0.012,2.311,0.016 C8.192,22.686,9.695,22.756,11.198,22.74z M12.442,10.407c-0.486,0.012-0.973,0.013-1.459,0.001 c-0.003-0.071-0.007-0.142-0.007-0.211c0-0.262,0.006-0.524,0.01-0.787c0.012-0.56,0.012-1.119,0.006-1.677 c-0.006-0.544-0.032-1.087-0.03-1.631c0.001-0.378,0.019-0.755,0.039-1.133c0.622-0.026,1.245-0.052,1.866-0.072 c0.76-0.026,1.515-0.014,2.275,0.01c0.759,0.024,1.515,0.05,2.273,0.072c0.776,0.022,1.553,0.028,2.33,0.034 c0.34,0.002,0.678-0.002,1.019-0.006c0.257-0.003,0.514-0.005,0.772,0.006c0.06,0.896,0.118,1.791,0.148,2.688 c0.016,0.49,0.064,0.977,0.088,1.467c0.016,0.339,0.03,0.679,0.044,1.019c-0.122,0.003-0.243,0.01-0.365,0.01 c-0.13,0-0.26,0-0.388,0.002c-0.402,0.01-0.805,0.022-1.209,0.028c-0.803,0.01-1.605,0.03-2.41,0.032 c-0.835,0-1.673,0.004-2.506,0.044C14.107,10.345,13.274,10.389,12.442,10.407z M17.76,18.739c-0.282,0.304-0.586,0.588-0.873,0.889 c-0.276,0.29-0.533,0.595-0.792,0.898c-0.16-0.157-0.319-0.315-0.48-0.47c-0.272-0.262-0.526-0.544-0.791-0.817 c-0.29-0.3-0.6-0.582-0.887-0.886c-0.133-0.14-0.265-0.283-0.397-0.425c0.186-0.22,0.386-0.428,0.571-0.648 c0.222-0.268,0.446-0.534,0.68-0.795c0.238-0.26,0.496-0.502,0.742-0.754c0.195-0.201,0.381-0.409,0.568-0.616 c0.49,0.437,0.978,0.876,1.473,1.308c0.414,0.363,0.788,0.773,1.159,1.183c-0.076,0.079-0.149,0.16-0.222,0.242 C18.254,18.137,18.026,18.455,17.76,18.739z M27.999,26.761c-0.396-0.02-0.791-0.04-1.185-0.044 c-0.055-0.001-0.109-0.001-0.164-0.001c-0.345,0-0.689,0.015-1.033,0.025c-0.802,0.024-1.605,0.054-2.41,0.056 c-0.677,0.002-1.352,0.005-2.027,0.026c-0.015-0.697,0-1.394-0.035-2.091c-0.032-0.641-0.023-1.279-0.006-1.92 c0.536-0.036,1.072-0.074,1.609-0.095c0.372-0.014,0.746-0.002,1.119,0.006c0.374,0.008,0.75,0.004,1.125,0.004 c0.779-0.004,1.555-0.006,2.332,0c0.308,0.004,0.616,0.002,0.927,0c0.366-0.002,0.734-0.001,1.102,0.004 c-0.023,0.734-0.028,1.469-0.004,2.204c0.014,0.41,0.02,0.823,0.018,1.233c0,0.209,0.007,0.419,0.014,0.628 C28.918,26.799,28.455,26.785,27.999,26.761z"/> </g>
</svg>