<!DOCTYPE svg PUBLIC "-//W3C//DTD SVG 1.1//EN" "http://www.w3.org/Graphics/SVG/1.1/DTD/svg11.dtd">
<!-- Uploaded to: SVG Repo, www.svgrepo.com, Transformed by: SVG Repo Mixer Tools -->
<svg width="64px" height="64px" viewBox="0 0 24 24" xmlns="http://www.w3.org/2000/svg" fill="none">
<g id="SVGRepo_bgCarrier" stroke-width="0"/>
<g id="SVGRepo_tracerCarrier" stroke-linecap="round" stroke-linejoin="round"/>
<g id="SVGRepo_iconCarrier">
<path stroke="#3B75B8" stroke-linecap="round" stroke-linejoin="round" stroke-width="2" d="M9.5 5H9a2 2 0 0 0-2 2v2c0 1-.6 3-3 3 1 0 3 .6 3 3v2a2 2 0 0 0 2 2h.5m5-14h.5a2 2 0 0 1 2 2v2c0 1 .6 3 3 3-1 0-3 .6-3 3v2a2 2 0 0 1-2 2h-.5"/>
</g>
</svg>